<svg width="195" height="32" viewBox="0 0 195 32" fill="none" xmlns="http://www.w3.org/2000/svg">
<path d="M122.182 17.9463C122.182 14.5433 120.355 12.9313 115.269 11.8209C112.439 11.2119 111.758 10.5672 111.758 9.67164C111.758 8.5612 112.761 8.0597 114.624 8.0597C116.881 8.0597 119.101 8.7403 121.215 9.70746V5.22985C119.746 4.47761 117.454 3.90448 114.767 3.90448C109.716 3.90448 107.101 6.08955 107.101 9.70746C107.101 12.5731 108.427 14.8657 113.657 15.8687C116.773 16.5134 117.418 17.0149 117.418 18.0537C117.418 19.0567 116.773 19.7015 114.552 19.7015C112.009 19.7015 108.964 18.8418 106.994 17.6597V22.3522C108.57 23.1403 110.648 24 114.516 24C120.033 24 122.182 21.5642 122.182 17.9463Z" fill="#7A869A"/>
<path d="M177.31 4.19104V23.7134H181.466V8.81194L183.221 12.7881L189.095 23.7134H194.325V4.19104H190.17V16.8L188.594 13.1463L183.866 4.19104H177.31Z" fill="#7A869A"/>
<path d="M150.875 4.19104H146.325V23.6776H150.875V4.19104Z" fill="#7A869A"/>
<path d="M141.095 17.9463C141.095 14.5433 139.269 12.9313 134.182 11.8209C131.352 11.2119 130.672 10.5672 130.672 9.67164C130.672 8.5612 131.675 8.0597 133.537 8.0597C135.794 8.0597 138.015 8.7403 140.128 9.70746V5.22985C138.66 4.47761 136.367 3.90448 133.681 3.90448C128.63 3.90448 126.015 6.08955 126.015 9.70746C126.015 12.5731 127.34 14.8657 132.57 15.8687C135.687 16.5134 136.331 17.0149 136.331 18.0537C136.331 19.0567 135.687 19.7015 133.466 19.7015C130.922 19.7015 127.878 18.8418 125.907 17.6597V22.3522C127.484 23.1403 129.561 24 133.43 24C138.946 24 141.095 21.5642 141.095 17.9463Z" fill="#7A869A"/>
<path d="M71.8537 4.19104V23.7134H81.2029L82.6716 19.4866H76.4388V4.19104H71.8537Z" fill="#7A869A"/>
<path d="M53.4418 4.19104V8.41791H58.4567V23.7134H63.0418V8.41791H68.4507V4.19104H53.4418Z" fill="#7A869A"/>
<path d="M46.8149 4.19104H40.8328L34.0269 23.6776H39.2209L40.1881 20.3821C41.3343 20.7045 42.5522 20.9194 43.8418 20.9194C45.0955 20.9194 46.3134 20.7403 47.4955 20.3821L48.4627 23.6776H53.6567L46.8149 4.19104ZM43.806 16.9075C42.9463 16.9075 42.0866 16.7642 41.2985 16.5493L43.806 8.02388L46.3134 16.5493C45.5254 16.7642 44.6657 16.9075 43.806 16.9075Z" fill="#7A869A"/>
<path d="M97.2865 4.19104H91.3044L84.4985 23.6776H89.6925L90.6597 20.3821C91.8059 20.7045 93.0238 20.9194 94.3134 20.9194C95.5671 20.9194 96.785 20.7403 97.9671 20.3821L98.9343 23.6776H104.128L97.2865 4.19104ZM94.3134 16.9075C93.4537 16.9075 92.594 16.7642 91.8059 16.5493L94.3134 8.02388L96.8209 16.5493C95.997 16.7642 95.1731 16.9075 94.3134 16.9075Z" fill="#7A869A"/>
<path d="M167.245 4.19104H161.263L154.457 23.6776H159.651L160.618 20.3821C161.764 20.7045 162.982 20.9194 164.272 20.9194C165.525 20.9194 166.743 20.7403 167.925 20.3821L168.893 23.6776H174.087L167.245 4.19104ZM164.236 16.9075C163.376 16.9075 162.516 16.7642 161.728 16.5493L164.236 8.02388L166.743 16.5493C165.955 16.7642 165.131 16.9075 164.236 16.9075Z" fill="#7A869A"/>
<path d="M7.80594 11.0687C7.69848 10.9254 7.48356 10.8537 7.30445 10.8537C7.16117 10.8896 7.01789 10.997 6.94624 11.1403L1.0358 22.9612C0.892512 23.2119 0.999975 23.5343 1.25072 23.6418C1.32236 23.6776 1.394 23.7134 1.46565 23.7134H9.70445C9.88356 23.7134 10.0985 23.606 10.1701 23.4269C11.9253 19.8448 10.8507 14.2925 7.80594 11.0687Z" fill="#7A869A"/>
<path d="M24.6776 22.9612C24.5343 22.7463 13.6089 0.823881 13.3224 0.286567C13.2507 0.107463 13.1074 0 12.9283 0H12.8925C12.7134 0 12.5343 0.107463 12.4268 0.286567C9.45371 4.9791 9.13133 10.6746 11.5313 15.4746L15.5074 23.391C15.5791 23.5702 15.7582 23.6776 15.9731 23.6776H24.2119C24.4985 23.6776 24.7134 23.4627 24.7134 23.1761C24.7134 23.1045 24.7134 23.0328 24.6776 22.9612Z" fill="#7A869A"/>
</svg>
