<svg width="32" height="32" viewBox="0 0 32 32" fill="none" xmlns="http://www.w3.org/2000/svg">
<g id="mini-vertical-logo-onecolor-blue-atlassian">
<g id="Group">
<g id="Group_2">
<g id="Group_3">
<g id="Group_4">
<path id="Vector" d="M17.8552 30.9321C17.8552 30.3123 17.5237 30.024 16.6156 29.8366C16.1111 29.7213 15.9814 29.606 15.9814 29.4475C15.9814 29.2457 16.1688 29.1592 16.5003 29.1592C16.9039 29.1592 17.3075 29.2889 17.6822 29.4475V28.6403C17.4084 28.5106 17.0048 28.3953 16.5291 28.3953C15.621 28.3953 15.1454 28.7844 15.1454 29.4331C15.1454 29.952 15.3904 30.3555 16.3273 30.5429C16.8895 30.6582 17.0048 30.7447 17.0048 30.9321C17.0048 31.1195 16.8895 31.2348 16.4859 31.2348C16.0246 31.2348 15.4769 31.0762 15.131 30.86V31.7104C15.4193 31.8546 15.794 31.9987 16.4859 31.9987C17.466 32.0276 17.8552 31.5807 17.8552 30.9321Z" fill="#7A869A"/>
<path id="Vector_2" d="M27.7719 28.4673V31.9699H28.5214V29.2889L28.8385 30.0096L29.8907 31.9699H30.8276V28.4673H30.0781V30.7303L29.8043 30.0673L28.9538 28.4673H27.7719Z" fill="#7A869A"/>
<path id="Vector_3" d="M23.0153 28.4673H22.1937V31.9699H23.0153V28.4673Z" fill="#7A869A"/>
<path id="Vector_4" d="M21.2569 30.9321C21.2569 30.3123 20.9254 30.024 20.0173 29.8366C19.5128 29.7213 19.3831 29.606 19.3831 29.4475C19.3831 29.2457 19.5705 29.1592 19.902 29.1592C20.3056 29.1592 20.7091 29.2889 21.0839 29.4475V28.6403C20.81 28.5106 20.4065 28.3953 19.9308 28.3953C19.0227 28.3953 18.5471 28.7844 18.5471 29.4331C18.5471 29.952 18.7921 30.3555 19.729 30.5429C20.2911 30.6582 20.4065 30.7447 20.4065 30.9321C20.4065 31.1195 20.2911 31.2348 19.8876 31.2348C19.4263 31.2348 18.8786 31.0762 18.5327 30.86V31.7104C18.8209 31.8546 19.1957 31.9987 19.8876 31.9987C20.8677 32.0276 21.2569 31.5807 21.2569 30.9321Z" fill="#7A869A"/>
<path id="Vector_5" d="M8.80328 28.4673V31.9699H10.4897L10.7492 31.206H9.62488V28.4673H8.80328Z" fill="#7A869A"/>
<path id="Vector_6" d="M5.4881 28.467V29.2166H6.39617V31.9696H7.21776V29.2166H8.1979V28.467H5.4881Z" fill="#7A869A"/>
</g>
</g>
<path id="Vector_7" d="M4.30621 28.467H3.22518L2 31.9695H2.9369L3.10987 31.3786C3.31166 31.4362 3.54228 31.4795 3.75849 31.4795C3.9747 31.4795 4.20532 31.4506 4.40711 31.3786L4.58008 31.9695H5.51698L4.30621 28.467ZM3.75849 30.7444C3.59994 30.7444 3.4558 30.7155 3.31166 30.6867L3.75849 29.1588L4.20531 30.6867C4.06118 30.73 3.91704 30.7444 3.75849 30.7444Z" fill="#7A869A"/>
<path id="Vector_8" d="M13.387 28.4673H12.3059L11.0807 31.9698H12.0176L12.1906 31.3789C12.3924 31.4365 12.623 31.4798 12.8392 31.4798C13.0699 31.4798 13.2861 31.4509 13.4879 31.3789L13.6608 31.9698H14.5977L13.387 28.4673ZM12.8392 30.7447C12.6807 30.7447 12.5366 30.7158 12.3924 30.687L12.8392 29.1591L13.2861 30.687C13.1419 30.7303 12.9978 30.7447 12.8392 30.7447Z" fill="#7A869A"/>
<path id="Vector_9" d="M25.9558 28.4673H24.8748L23.6496 31.9698H24.5865L24.7594 31.3789C24.9612 31.4365 25.1919 31.4798 25.4081 31.4798C25.6387 31.4798 25.8549 31.4509 26.0567 31.3789L26.2296 31.9698H27.1665L25.9558 28.4673ZM25.4225 30.7447C25.2639 30.7447 25.1198 30.7158 24.9756 30.687L25.4225 29.1591L25.8693 30.687C25.7252 30.7303 25.581 30.7447 25.4225 30.7447Z" fill="#7A869A"/>
</g>
<g id="Group_5">
<path id="Vector_10" d="M10.8356 12.2374C10.6915 12.0788 10.4897 11.9924 10.2879 12.0212C10.1149 12.05 9.95638 12.1797 9.88431 12.3383L3.35484 25.3972C3.2107 25.6855 3.32601 26.017 3.61429 26.1611C3.70077 26.2044 3.78725 26.2188 3.87373 26.2188H12.9689C13.1851 26.2188 13.3869 26.1035 13.4734 25.9017C15.3904 21.9523 14.2085 15.8264 10.8356 12.2374Z" fill="#7A869A"/>
<path id="Vector_11" d="M29.4727 25.3972C29.3574 25.1521 17.2354 0.908071 16.9327 0.30269C16.8462 0.129724 16.6876 0.0144138 16.5003 0H16.4858C16.2696 0.0144138 16.0823 0.129724 15.9669 0.317104C12.6806 5.52049 12.3058 11.8049 14.9724 17.1236L19.3542 25.9016C19.4551 26.1034 19.6425 26.2187 19.8731 26.2187H28.9682C29.2853 26.2187 29.5448 25.9593 29.5448 25.6422C29.5304 25.5557 29.5159 25.4692 29.4727 25.3972Z" fill="#7A869A"/>
</g>
</g>
</g>
</svg>
